<svg width="22" height="10" viewBox="0 0 22 10" fill="none" xmlns="http://www.w3.org/2000/svg">
<path fill-rule="evenodd" clip-rule="evenodd" d="M21 2C21.5523 2 22 1.55229 22 1C22 0.447716 21.5523 0 21 0V1L20.9999 0H20.9997H20.999H20.9959H20.9837H20.9356H20.7497H20.0564H17.6851H11.4167H4.73154L2.07381 2.58154e-06L1.28607 2.9026e-06L1.07372 3.04409e-06L1.01871 3.04986e-06L1.00471 3.05133e-06L1.00118 3.0517e-06L1.0003 3.05179e-06L1.00007 3.05181e-06L1 1L1 3.05182e-06C0.447716 3.28857e-06 0 0.447719 0 1C0 1.55229 0.447716 2 1 2L1 1L1.00007 2H1.0003H1.00118H1.00471H1.01871H1.07372L1.28607 2L2.07381 2L4.73154 2L11.4167 2L17.6851 2L20.0564 2L20.7497 2H20.9356H20.9837H20.9959H20.999H20.9997H20.9999L21 1V2ZM1 8C0.447715 8 0 8.44772 0 9C0 9.55229 0.447715 10 1 10V9L1.00006 10H1.00026H1.00058H1.00103H1.00161H1.00231H1.00315H1.00411H1.00519H1.00641H1.00774H1.00921H1.0108H1.01251H1.01435H1.01631H1.0184H1.02061H1.02295H1.0254H1.02798H1.03069H1.03351H1.03645H1.03952H1.04271H1.04602H1.04945H1.053H1.05667H1.06045H1.06436H1.06839H1.07253H1.07679H1.08117H1.08567H1.09028H1.09501H1.09986H1.10482H1.1099H1.1151H1.12041H1.12583H1.13137H1.13702H1.14279H1.14867H1.15466H1.16077H1.16699H1.17332H1.17976H1.18631H1.19298H1.19976H1.20664H1.21364H1.22074H1.22796H1.23528H1.24272H1.25026H1.25791H1.26567H1.27353H1.28151H1.28959H1.29777H1.30607H1.31446H1.32297H1.33158H1.34029H1.34911H1.35803H1.36706H1.37619H1.38542H1.39476H1.4042H1.41374H1.42338H1.43313H1.44297H1.45292H1.46297H1.47311H1.48336H1.49371H1.50416H1.5147H1.52535H1.53609H1.54693H1.55787H1.5689H1.58004H1.59127H1.60259H1.61401H1.62553H1.63714H1.64885H1.66065H1.67255H1.68454H1.69663H1.7088H1.72107H1.73344H1.74589H1.75844H1.77108H1.78381H1.79664H1.80955H1.82255H1.83565H1.84883H1.8621H1.87546H1.88892H1.90245H1.91608H1.9298H1.9436H1.95749H1.97147H1.98553H1.99968H2.01391H2.02823H2.04264H2.05713H2.07171H2.08636H2.10111H2.11593H2.13084H2.14584H2.16091H2.17607H2.19131H2.20663H2.22203H2.23751H2.25308H2.26872H2.28445H2.30025H2.31613H2.33209H2.34813H2.36425H2.38045H2.39672H2.41307H2.4295H2.446H2.46259H2.47924H2.49597H2.51278H2.52967H2.54662H2.56365H2.58076H2.59794H2.61519H2.63252H2.64992H2.66739H2.68493H2.70255H2.72023H2.73799H2.75582H2.77371H2.79168H2.80972H2.82783H2.846H2.86425H2.88256H2.90094H2.91939H2.93791H2.95649H2.97514H2.99386H3.01264H3.03149H3.05041H3.06938H3.08843H3.10754H3.12671H3.14595H3.16525H3.18461H3.20404H3.22352H3.24307H3.26269H3.28236H3.3021H3.32189H3.34175H3.36166H3.38164H3.40168H3.42177H3.44193H3.46214H3.48241H3.50274H3.52313H3.54357H3.56407H3.58463H3.60524H3.62591H3.64663H3.66741H3.68825H3.70914H3.73008H3.75108H3.77213H3.79324H3.81439H3.8356H3.85687H3.87818H3.89955H3.92096H3.94243H3.96395H3.98552H4.00714H4.02881H4.05053H4.0723H4.09411H4.11598H4.13789H4.15985H4.18186H4.20391H4.22601H4.24816H4.27035H4.29259H4.31488H4.33721H4.35958H4.382H4.40446H4.42697H4.44952H4.47212H4.49475H4.51743H4.54015H4.56291H4.58572H4.60856H4.63145H4.65438H4.67734H4.70035H4.72339H4.74648H4.7696H4.79276H4.81596H4.8392H4.86248H4.88579H4.90914H4.93253H4.95595H4.97941H5.0029H5.02643H5.05H5.0736H5.09723H5.12089H5.14459H5.16833H5.19209H5.21589H5.23972H5.26359H5.28748H5.31141H5.33537H5.35935H5.38337H5.40742H5.4315H5.4556H5.47974H5.5039H5.5281H5.55232H5.57656H5.60084H5.62514H5.64947H5.67383H5.69821H5.72262H5.74705H5.77151H5.79599H5.82049H5.84503H5.86958H5.89416H5.91876H5.94338H5.96803H5.9927H6.01739H6.0421H6.06683H6.09158H6.11635H6.14115H6.16596H6.19079H6.21565H6.24052H6.2654H6.29031H6.31524H6.34018H6.36514H6.39011H6.41511H6.44012H6.46514H6.49018H6.51524H6.54031H6.56539H6.59049H6.6156H6.64073H6.66587H6.69102H6.71619H6.74136H6.76655H6.79175H6.81696H6.84219H6.86742H6.89266H6.91791H6.94318H6.96845H6.99373H7.01902H7.04432H7.06962H7.09494H7.12026H7.14558H7.17092H7.19626H7.2216H7.24696H7.27231H7.29768H7.32304H7.34841H7.37379H7.39917H7.42455H7.44993H7.47532H7.50071H7.5261H7.5515H7.57689H7.60229H7.62769H7.65308H7.67848H7.70388H7.72927H7.75467H7.78006H7.80546H7.83085H7.85624H7.88162H7.907H7.93238H7.95776H7.98313H8.0085H8.03386H8.05922H8.08458H8.10992H8.13527H8.1606H8.18593H8.21125H8.23657H8.26187H8.28717H8.31247H8.33775H8.36302H8.38829H8.41354H8.43879H8.46402H8.48925H8.51446H8.53967H8.56486H8.59004H8.61521H8.64036H8.6655H8.69063H8.71575H8.74085H8.76594H8.79101H8.81607H8.84111H8.86614H8.89116H8.91615H8.94113H8.9661H8.99104H9.01597H9.04088H9.06578H9.09065H9.11551H9.14034H9.16516H9.18996H9.21474H9.2395H9.26423H9.28895H9.31364H9.33832H9.36297H9.3876H9.4122H9.43679H9.46135H9.48588H9.5104H9.53488H9.55935H9.58379H9.6082H9.63259H9.65695H9.68128H9.70559H9.72988H9.75413H9.77836H9.80256H9.82673H9.85087H9.87498H9.89907H9.92312H9.94715H9.97114H9.99511H10.019H10.0429H10.0668H10.0907H10.1145H10.1382H10.162H10.1857H10.2094H10.233H10.2566H10.2802H10.3037H10.3272H10.3507H10.3741H10.3975H10.4209H10.4442H10.4675H10.4907H10.5139H10.5371H10.5602H10.5833H10.6064H10.6296H10.6528H10.6761H10.6994H10.7228H10.7463H10.7698H10.7933H10.8169H10.8406H10.8643H10.8881H10.9119H10.9358H10.9597H10.9837H11.0077H11.0318H11.0559H11.0801H11.1043H11.1286H11.1529H11.1773H11.2018H11.2262H11.2507H11.2753H11.2999H11.3246H11.3493H11.374H11.3988H11.4237H11.4486H11.4735H11.4985H11.5235H11.5485H11.5736H11.5988H11.624H11.6492H11.6744H11.6998H11.7251H11.7505H11.7759H11.8014H11.8269H11.8524H11.878H11.9036H11.9292H11.9549H11.9806H12.0064H12.0322H12.058H12.0838H12.1097H12.1356H12.1616H12.1876H12.2136H12.2396H12.2657H12.2918H12.318H12.3442H12.3704H12.3966H12.4228H12.4491H12.4754H12.5018H12.5282H12.5546H12.581H12.6074H12.6339H12.6604H12.6869H12.7135H12.7401H12.7666H12.7933H12.8199H12.8466H12.8733H12.9H12.9267H12.9534H12.9802H13.007H13.0338H13.0606H13.0875H13.1144H13.1412H13.1681H13.1951H13.222H13.2489H13.2759H13.3029H13.3299H13.3569H13.3839H13.4109H13.438H13.4651H13.4921H13.5192H13.5463H13.5734H13.6006H13.6277H13.6549H13.682H13.7092H13.7363H13.7635H13.7907H13.8179H13.8451H13.8723H13.8995H13.9268H13.954H13.9812H14.0085H14.0357H14.063H14.0902H14.1175H14.1447H14.172H14.1993H14.2265H14.2538H14.2811H14.3083H14.3356H14.3629H14.3901H14.4174H14.4447H14.4719H14.4992H14.5264H14.5537H14.5809H14.6082H14.6354H14.6627H14.6899H14.7171H14.7443H14.7716H14.7988H14.826H14.8532H14.8803H14.9075H14.9347H14.9618H14.989H15.0161H15.0433H15.0704H15.0975H15.1246H15.1517H15.1787H15.2058H15.2328H15.2599H15.2869H15.3139H15.3409H15.3678H15.3948H15.4217H15.4487H15.4756H15.5025H15.5293H15.5562H15.583H15.6098H15.6366H15.6634H15.6902H15.7169H15.7436H15.7703H15.797H15.8237H15.8503H15.8769H15.9035H15.93H15.9566H15.9831H16.0096H16.036H16.0625H16.0889H16.1152H16.1416H16.1679H16.1942H16.2205H16.2467H16.273H16.2991H16.3253H16.3514H16.3775H16.4036H16.4296H16.4556H16.4816H16.5075H16.5334H16.5593H16.5851H16.6109H16.6367H16.6624H16.6881H16.7138H16.7394H16.765H16.7906H16.8161H16.8415H16.867H16.8924H16.9177H16.9431H16.9683H16.9936H17.0188H17.0439H17.0691H17.0941H17.1192H17.1442H17.1691H17.194H17.2189H17.2437H17.2685H17.2932H17.3179H17.3425H17.3671H17.3916H17.4161H17.4406H17.465H17.4893H17.5136H17.5379H17.5621H17.5862H17.6103H17.6344H17.6584H17.6823H17.7062H17.7301H17.7539H17.7776H17.8013H17.8249H17.8485H17.872H17.8955H17.9189H17.9423H17.9656H17.9888H18.012H18.0351H18.0582H18.0812H18.1042H18.1271H18.1499H18.1727H18.1954H18.2181H18.2406H18.2632H18.2856H18.3081H18.3304H18.3527H18.3749H18.3971H18.4191H18.4412H18.4631H18.485H18.5068H18.5286H18.5503H18.5719H18.5935H18.615H18.6364H18.6578H18.679H18.7002H18.7214H18.7425H18.7635H18.7844H18.8053H18.8261H18.8468H18.8674H18.888H18.9085H18.9289H18.9492H18.9695H18.9897H19.0098H19.0299H19.0499H19.0697H19.0896H19.1093H19.129H19.1485H19.168H19.1875H19.2068H19.2261H19.2452H19.2643H19.2834H19.3023H19.3212H19.3399H19.3586H19.3772H19.3957H19.4142H19.4325H19.4508H19.469H19.4871H19.5051H19.523H19.5409H19.5586H19.5763H19.5938H19.6113H19.6287H19.646H19.6633H19.6804H19.6974H19.7144H19.7312H19.748H19.7647H19.7812H19.7977H19.8141H19.8304H19.8466H19.8627H19.8787H19.8946H19.9105H19.9262H19.9418H19.9574H19.9728H19.9881H20.0034H20.0185H20.0335H20.0485H20.0633H20.0781H20.0927H20.1072H20.1217H20.136H20.1502H20.1644H20.1784H20.1923H20.2062H20.2199H20.2335H20.247H20.2604H20.2737H20.2869H20.2999H20.3129H20.3258H20.3385H20.3512H20.3637H20.3762H20.3885H20.4007H20.4128H20.4248H20.4367H20.4484H20.4601H20.4716H20.4831H20.4944H20.5056H20.5167H20.5277H20.5385H20.5493H20.5599H20.5704H20.5808H20.5911H20.6013H20.6113H20.6212H20.631H20.6407H20.6503H20.6598H20.6691H20.6783H20.6874H20.6964H20.7052H20.7139H20.7225H20.731H20.7394H20.7476H20.7557H20.7637H20.7716H20.7793H20.7869H20.7944H20.8017H20.809H20.8161H20.823H20.8299H20.8366H20.8432H20.8497H20.856H20.8622H20.8683H20.8742H20.88H20.8857H20.8912H20.8966H20.9019H20.907H20.9121H20.9169H20.9217H20.9263H20.9308H20.9351H20.9393H20.9433H20.9473H20.9511H20.9547H20.9582H20.9616H20.9648H20.9679H20.9709H20.9737H20.9764H20.9789H20.9813H20.9835H20.9857H20.9876H20.9894H20.9911H20.9927H20.994H20.9953H20.9964H20.9973H20.9982H20.9988H20.9993H20.9997H20.9999L21 9V10C21.5523 10 22 9.55229 22 9C22 8.44772 21.5523 8 21 8V9L20.9999 8H20.9997H20.9993H20.9988H20.9982H20.9973H20.9964H20.9953H20.994H20.9927H20.9911H20.9894H20.9876H20.9857H20.9835H20.9813H20.9789H20.9764H20.9737H20.9709H20.9679H20.9648H20.9616H20.9582H20.9547H20.9511H20.9473H20.9433H20.9393H20.9351H20.9308H20.9263H20.9217H20.9169H20.9121H20.907H20.9019H20.8966H20.8912H20.8857H20.88H20.8742H20.8683H20.8622H20.856H20.8497H20.8432H20.8366H20.8299H20.823H20.8161H20.809H20.8017H20.7944H20.7869H20.7793H20.7716H20.7637H20.7557H20.7476H20.7394H20.731H20.7225H20.7139H20.7052H20.6964H20.6874H20.6783H20.6691H20.6598H20.6503H20.6407H20.631H20.6212H20.6113H20.6013H20.5911H20.5808H20.5704H20.5599H20.5493H20.5385H20.5277H20.5167H20.5056H20.4944H20.4831H20.4716H20.4601H20.4484H20.4367H20.4248H20.4128H20.4007H20.3885H20.3762H20.3637H20.3512H20.3385H20.3258H20.3129H20.2999H20.2869H20.2737H20.2604H20.247H20.2335H20.2199H20.2062H20.1923H20.1784H20.1644H20.1502H20.136H20.1217H20.1072H20.0927H20.0781H20.0633H20.0485H20.0335H20.0185H20.0034H19.9881H19.9728H19.9574H19.9418H19.9262H19.9105H19.8946H19.8787H19.8627H19.8466H19.8304H19.8141H19.7977H19.7812H19.7647H19.748H19.7312H19.7144H19.6974H19.6804H19.6633H19.646H19.6287H19.6113H19.5938H19.5763H19.5586H19.5409H19.523H19.5051H19.4871H19.469H19.4508H19.4325H19.4142H19.3957H19.3772H19.3586H19.3399H19.3212H19.3023H19.2834H19.2643H19.2452H19.2261H19.2068H19.1875H19.168H19.1485H19.129H19.1093H19.0896H19.0697H19.0499H19.0299H19.0098H18.9897H18.9695H18.9492H18.9289H18.9085H18.888H18.8674H18.8468H18.8261H18.8053H18.7844H18.7635H18.7425H18.7214H18.7002H18.679H18.6578H18.6364H18.615H18.5935H18.5719H18.5503H18.5286H18.5068H18.485H18.4631H18.4412H18.4191H18.3971H18.3749H18.3527H18.3304H18.3081H18.2856H18.2632H18.2406H18.2181H18.1954H18.1727H18.1499H18.1271H18.1042H18.0812H18.0582H18.0351H18.012H17.9888H17.9656H17.9423H17.9189H17.8955H17.872H17.8485H17.8249H17.8013H17.7776H17.7539H17.7301H17.7062H17.6823H17.6584H17.6344H17.6103H17.5862H17.5621H17.5379H17.5136H17.4893H17.465H17.4406H17.4161H17.3916H17.3671H17.3425H17.3179H17.2932H17.2685H17.2437H17.2189H17.194H17.1691H17.1442H17.1192H17.0941H17.0691H17.0439H17.0188H16.9936H16.9683H16.9431H16.9177H16.8924H16.867H16.8415H16.8161H16.7906H16.765H16.7394H16.7138H16.6881H16.6624H16.6367H16.6109H16.5851H16.5593H16.5334H16.5075H16.4816H16.4556H16.4296H16.4036H16.3775H16.3514H16.3253H16.2991H16.273H16.2467H16.2205H16.1942H16.1679H16.1416H16.1152H16.0889H16.0625H16.036H16.0096H15.9831H15.9566H15.93H15.9035H15.8769H15.8503H15.8237H15.797H15.7703H15.7436H15.7169H15.6902H15.6634H15.6366H15.6098H15.583H15.5562H15.5293H15.5025H15.4756H15.4487H15.4217H15.3948H15.3678H15.3409H15.3139H15.2869H15.2599H15.2328H15.2058H15.1787H15.1517H15.1246H15.0975H15.0704H15.0433H15.0161H14.989H14.9618H14.9347H14.9075H14.8803H14.8532H14.826H14.7988H14.7716H14.7443H14.7171H14.6899H14.6627H14.6354H14.6082H14.5809H14.5537H14.5264H14.4992H14.4719H14.4447H14.4174H14.3901H14.3629H14.3356H14.3083H14.2811H14.2538H14.2265H14.1993H14.172H14.1447H14.1175H14.0902H14.063H14.0357H14.0085H13.9812H13.954H13.9268H13.8995H13.8723H13.8451H13.8179H13.7907H13.7635H13.7363H13.7092H13.682H13.6549H13.6277H13.6006H13.5734H13.5463H13.5192H13.4921H13.4651H13.438H13.4109H13.3839H13.3569H13.3299H13.3029H13.2759H13.2489H13.222H13.1951H13.1681H13.1412H13.1144H13.0875H13.0606H13.0338H13.007H12.9802H12.9534H12.9267H12.9H12.8733H12.8466H12.8199H12.7933H12.7666H12.7401H12.7135H12.6869H12.6604H12.6339H12.6074H12.581H12.5546H12.5282H12.5018H12.4754H12.4491H12.4228H12.3966H12.3704H12.3442H12.318H12.2918H12.2657H12.2396H12.2136H12.1876H12.1616H12.1356H12.1097H12.0838H12.058H12.0322H12.0064H11.9806H11.9549H11.9292H11.9036H11.878H11.8524H11.8269H11.8014H11.7759H11.7505H11.7251H11.6998H11.6744H11.6492H11.624H11.5988H11.5736H11.5485H11.5235H11.4985H11.4735H11.4486H11.4237H11.3988H11.374H11.3493H11.3246H11.2999H11.2753H11.2507H11.2262H11.2018H11.1773H11.1529H11.1286H11.1043H11.0801H11.0559H11.0318H11.0077H10.9837H10.9597H10.9358H10.9119H10.8881H10.8643H10.8406H10.8169H10.7933H10.7698H10.7463H10.7228H10.6994H10.6761H10.6528H10.6296H10.6064H10.5833H10.5602H10.5371H10.5139H10.4907H10.4675H10.4442H10.4209H10.3975H10.3741H10.3507H10.3272H10.3037H10.2802H10.2566H10.233H10.2094H10.1857H10.162H10.1382H10.1145H10.0907H10.0668H10.0429H10.019H9.99511H9.97114H9.94715H9.92312H9.89907H9.87498H9.85087H9.82673H9.80256H9.77836H9.75413H9.72988H9.70559H9.68128H9.65695H9.63259H9.6082H9.58379H9.55935H9.53488H9.5104H9.48588H9.46135H9.43679H9.4122H9.3876H9.36297H9.33832H9.31364H9.28895H9.26423H9.2395H9.21474H9.18996H9.16516H9.14034H9.11551H9.09065H9.06578H9.04088H9.01597H8.99104H8.9661H8.94113H8.91615H8.89116H8.86614H8.84111H8.81607H8.79101H8.76594H8.74085H8.71575H8.69063H8.6655H8.64036H8.61521H8.59004H8.56486H8.53967H8.51446H8.48925H8.46402H8.43879H8.41354H8.38829H8.36302H8.33775H8.31247H8.28717H8.26187H8.23657H8.21125H8.18593H8.1606H8.13527H8.10992H8.08458H8.05922H8.03386H8.0085H7.98313H7.95776H7.93238H7.907H7.88162H7.85624H7.83085H7.80546H7.78006H7.75467H7.72927H7.70388H7.67848H7.65308H7.62769H7.60229H7.57689H7.5515H7.5261H7.50071H7.47532H7.44993H7.42455H7.39917H7.37379H7.34841H7.32304H7.29768H7.27231H7.24696H7.2216H7.19626H7.17092H7.14558H7.12026H7.09494H7.06962H7.04432H7.01902H6.99373H6.96845H6.94318H6.91791H6.89266H6.86742H6.84219H6.81696H6.79175H6.76655H6.74136H6.71619H6.69102H6.66587H6.64073H6.6156H6.59049H6.56539H6.54031H6.51524H6.49018H6.46514H6.44012H6.41511H6.39011H6.36514H6.34018H6.31524H6.29031H6.2654H6.24052H6.21565H6.19079H6.16596H6.14115H6.11635H6.09158H6.06683H6.0421H6.01739H5.9927H5.96803H5.94338H5.91876H5.89416H5.86958H5.84503H5.82049H5.79599H5.77151H5.74705H5.72262H5.69821H5.67383H5.64947H5.62514H5.60084H5.57656H5.55232H5.5281H5.5039H5.47974H5.4556H5.4315H5.40742H5.38337H5.35935H5.33537H5.31141H5.28748H5.26359H5.23972H5.21589H5.19209H5.16833H5.14459H5.12089H5.09723H5.0736H5.05H5.02643H5.0029H4.97941H4.95595H4.93253H4.90914H4.88579H4.86248H4.8392H4.81596H4.79276H4.7696H4.74648H4.72339H4.70035H4.67734H4.65438H4.63145H4.60856H4.58572H4.56291H4.54015H4.51743H4.49475H4.47212H4.44952H4.42697H4.40446H4.382H4.35958H4.33721H4.31488H4.29259H4.27035H4.24816H4.22601H4.20391H4.18186H4.15985H4.13789H4.11598H4.09411H4.0723H4.05053H4.02881H4.00714H3.98552H3.96395H3.94243H3.92096H3.89955H3.87818H3.85687H3.8356H3.81439H3.79324H3.77213H3.75108H3.73008H3.70914H3.68825H3.66741H3.64663H3.62591H3.60524H3.58463H3.56407H3.54357H3.52313H3.50274H3.48241H3.46214H3.44193H3.42177H3.40168H3.38164H3.36166H3.34175H3.32189H3.3021H3.28236H3.26269H3.24307H3.22352H3.20404H3.18461H3.16525H3.14595H3.12671H3.10754H3.08843H3.06938H3.05041H3.03149H3.01264H2.99386H2.97514H2.95649H2.93791H2.91939H2.90094H2.88256H2.86425H2.846H2.82783H2.80972H2.79168H2.77371H2.75582H2.73799H2.72023H2.70255H2.68493H2.66739H2.64992H2.63252H2.61519H2.59794H2.58076H2.56365H2.54662H2.52967H2.51278H2.49597H2.47924H2.46259H2.446H2.4295H2.41307H2.39672H2.38045H2.36425H2.34813H2.33209H2.31613H2.30025H2.28445H2.26872H2.25308H2.23751H2.22203H2.20663H2.19131H2.17607H2.16091H2.14584H2.13084H2.11593H2.10111H2.08636H2.07171H2.05713H2.04264H2.02823H2.01391H1.99968H1.98553H1.97147H1.95749H1.9436H1.9298H1.91608H1.90245H1.88892H1.87546H1.8621H1.84883H1.83565H1.82255H1.80955H1.79664H1.78381H1.77108H1.75844H1.74589H1.73344H1.72107H1.7088H1.69663H1.68454H1.67255H1.66065H1.64885H1.63714H1.62553H1.61401H1.60259H1.59127H1.58004H1.5689H1.55787H1.54693H1.53609H1.52535H1.5147H1.50416H1.49371H1.48336H1.47311H1.46297H1.45292H1.44297H1.43313H1.42338H1.41374H1.4042H1.39476H1.38542H1.37619H1.36706H1.35803H1.34911H1.34029H1.33158H1.32297H1.31446H1.30607H1.29777H1.28959H1.28151H1.27353H1.26567H1.25791H1.25026H1.24272H1.23528H1.22796H1.22074H1.21364H1.20664H1.19976H1.19298H1.18631H1.17976H1.17332H1.16699H1.16077H1.15466H1.14867H1.14279H1.13702H1.13137H1.12583H1.12041H1.1151H1.1099H1.10482H1.09986H1.09501H1.09028H1.08567H1.08117H1.07679H1.07253H1.06839H1.06436H1.06045H1.05667H1.053H1.04945H1.04602H1.04271H1.03952H1.03645H1.03351H1.03069H1.02798H1.0254H1.02295H1.02061H1.0184H1.01631H1.01435H1.01251H1.0108H1.00921H1.00774H1.00641H1.00519H1.00411H1.00315H1.00231H1.00161H1.00103H1.00058H1.00026H1.00006L1 9V8Z" fill="currentColor"/>
</svg>